name C:\Users\u0101727\Documents\MyRepositories\upper-imu-dc\Results\main_tracking\Case_61\kinematics.mot
datacolumns 10
datarows 52
range 3.45000000 3.96000000
endheader 
time	clav_prot	clav_elev	scapula_abduction	scapula_elevation	scapula_upward_rot	scapula_winging	plane_elv	shoulder_elv	axial_rot	
          3.45000000	        -40.76952759	          8.77910916	          1.76310892	         -2.23681365	         77.26706429	        -10.59843835	         38.50037374	         94.64599192	         -6.19784250	
          3.46000000	        -40.79558382	          8.75087021	          1.74810100	         -2.25573526	         77.29531006	        -10.60193112	         38.55966742	         94.58422257	         -6.15532776	
          3.47000000	        -40.82060339	          8.72314536	          1.73325712	         -2.27437891	         77.32170452	        -10.60520745	         38.61972177	         94.52222120	         -6.11317266	
          3.48000000	        -40.84464301	          8.69582537	          1.71841029	         -2.29283518	         77.34612478	        -10.60828670	         38.67996938	         94.46002636	         -6.07153345	
          3.49000000	        -40.86776215	          8.66877510	          1.70340563	         -2.31121142	         77.36846061	        -10.61118119	         38.73986621	         94.39769338	         -6.03057698	
          3.50000000	        -40.89002563	          8.64184347	          1.68809739	         -2.32962468	         77.38861974	        -10.61389942	         38.79891161	         94.33529484	         -5.99046149	
          3.51000000	        -40.91150644	          8.61487444	          1.67234522	         -2.34819403	         77.40653255	        -10.61644978	         38.85666697	         94.27292048	         -5.95131707	
          3.52000000	        -40.93228793	          8.58771795	          1.65601084	         -2.36703293	         77.42215620	        -10.61884406	         38.91277098	         94.21067659	         -5.91322870	
          3.53000000	        -40.95246486	          8.56023994	          1.63895633	         -2.38624221	         77.43547797	        -10.62110018	         38.96695025	         94.14868510	         -5.87622515	
          3.54000000	        -40.97214293	          8.53233021	          1.62104485	         -2.40590440	         77.44651751	        -10.62324376	         39.01902391	         94.08708224	         -5.84027608	
          3.55000000	        -40.99143595	          8.50390812	          1.60214471	         -2.42607957	         77.45532778	        -10.62530807	         39.06890177	         94.02601641	         -5.80529898	
          3.56000000	        -41.01046083	          8.47492591	          1.58213656	         -2.44680272	         77.46199420	        -10.62733229	         39.11657589	         93.96564519	         -5.77117578	
          3.57000000	        -41.02933015	          8.44536994	          1.56092351	         -2.46808254	         77.46663188	        -10.62935829	         39.16210660	         93.90613093	         -5.73777788	
          3.58000000	        -41.04814315	          8.41526040	          1.53844286	         -2.48990130	         77.46938068	        -10.63142630	         39.20560479	         93.84763500	         -5.70499652	
          3.59000000	        -41.06697569	          8.38464932	          1.51467816	         -2.51221598	         77.47039831	        -10.63356995	         39.24721273	         93.79031080	         -5.67277466	
          3.60000000	        -41.08587076	          8.35361695	          1.48966963	         -2.53496076	         77.46985176	        -10.63581121	         39.28708623	         93.73429584	         -5.64113610	
          3.61000000	        -41.10483034	          8.32226626	          1.46352175	         -2.55805092	         77.46790771	        -10.63815583	         39.32538043	         93.67970358	         -5.61020802	
          3.62000000	        -41.12380966	          8.29071635	          1.43640660	         -2.58138774	         77.46472244	        -10.64058974	         39.36224088	         93.62661571	         -5.58023384	
          3.63000000	        -41.14271431	          8.25909563	          1.40856278	         -2.60486382	         77.46043211	        -10.64307692	         39.39780043	         93.57507527	         -5.55157493	
          3.64000000	        -41.16140024	          8.22753568	          1.38028991	         -2.62836805	         77.45514405	        -10.64555878	         39.43218167	         93.52508114	         -5.52470143	
          3.65000000	        -41.17967622	          8.19616602	          1.35193970	         -2.65178998	         77.44892936	        -10.64795509	         39.46550422	         93.47658404	         -5.50017360	
          3.66000000	        -41.19730843	          8.16511019	          1.32390462	         -2.67502343	         77.44181728	        -10.65016602	         39.49789551	         93.42948453	         -5.47861592	
          3.67000000	        -41.21402626	          8.13448319	          1.29660550	         -2.69796904	         77.43379137	        -10.65207509	         39.52950378	         93.38363279	         -5.46068696	
          3.68000000	        -41.22952901	          8.10439026	          1.27047881	         -2.72053580	         77.42478759	        -10.65355273	         39.56051165	         93.33883028	         -5.44704711	
          3.69000000	        -41.24349298	          8.07492669	          1.24596440	         -2.74264176	         77.41469395	        -10.65446009	         39.59114883	         93.29483300	         -5.43832663	
          3.70000000	        -41.25557860	          8.04617815	          1.22349372	         -2.76421439	         77.40335127	        -10.65465304	         39.62170279	         93.25135606	         -5.43509559	
          3.71000000	        -41.26543770	          8.01822089	          1.20347896	         -2.78519077	         77.39055486	        -10.65398598	         39.65252611	         93.20807919	         -5.43783699	
          3.72000000	        -41.27272049	          7.99112221	          1.18630293	         -2.80551766	         77.37605711	        -10.65231563	         39.68404012	         93.16465330	         -5.44692416	
          3.73000000	        -41.27708224	          7.96494181	          1.17231038	         -2.82515072	         77.35957108	        -10.64950469	         39.71673440	         93.12070750	         -5.46260317	
          3.74000000	        -41.27818931	          7.93973451	          1.16180092	         -2.84405272	         77.34077537	        -10.64542544	         39.75116246	         93.07585678	         -5.48498063	
          3.75000000	        -41.27572431	          7.91555391	          1.15502434	         -2.86219084	         77.31932031	        -10.63996300	         39.78793461	         93.02970989	         -5.51401797	
          3.76000000	        -41.26939030	          7.89245564	          1.15217860	         -2.87953408	         77.29483554	        -10.63301775	         39.82770867	         92.98187747	         -5.54953279	
          3.77000000	        -41.25891389	          7.87049898	          1.15341108	         -2.89605159	         77.26693856	        -10.62450656	         39.87117976	         92.93198007	         -5.59120786	
          3.78000000	        -41.24404741	          7.84974570	          1.15882244	         -2.91171282	         77.23524390	        -10.61436264	         39.91907007	         92.87965577	         -5.63860719	
          3.79000000	        -41.22457056	          7.83025536	          1.16847246	         -2.92648983	         77.19937263	        -10.60253402	         39.97211974	         92.82456683	         -5.69119747	
          3.80000000	        -41.20029194	          7.81207752	          1.18238657	         -2.94036201	         77.15896139	        -10.58898113	         40.03107957	         92.76640520	         -5.74837261	
          3.81000000	        -41.17105056	          7.79524212	          1.20056223	         -2.95332188	         77.11367079	        -10.57367388	         40.09670561	         92.70489662	         -5.80947903	
          3.82000000	        -41.13671726	          7.77975091	          1.22297487	         -2.96538037	         77.06319323	        -10.55658894	         40.16975476	         92.63980320	         -5.87384060	
          3.83000000	        -41.09719532	          7.76557227	          1.24958364	         -2.97656974	         77.00726000	        -10.53770775	         40.25098003	         92.57092452	         -5.94078267	
          3.84000000	        -41.05241996	          7.75264091	          1.28033728	         -2.98694320	         76.94564748	        -10.51701523	         40.34112460	         92.49809720	         -6.00965521	
          3.85000000	        -41.00235633	          7.74086231	          1.31518025	         -2.99657133	         76.87818206	        -10.49449934	         40.44091399	         92.42119291	         -6.07985506	
          3.86000000	        -40.94699618	          7.73012060	          1.35405873	         -3.00553623	         76.80474291	        -10.47015108	         40.55104688	         92.34011480	         -6.15084624	
          3.87000000	        -40.88635359	          7.72028871	          1.39692563	         -3.01392429	         76.72526237	        -10.44396495	         40.67218542	         92.25479217	         -6.22217702	
          3.88000000	        -40.82046019	          7.71123937	          1.44374409	         -3.02181858	         76.63972336	        -10.41593986	         40.80494599	         92.16517353	         -6.29349207	
          3.89000000	        -40.74936036	          7.70285606	          1.49448881	         -3.02929154	         76.54815416	        -10.38608023	         40.94989107	         92.07121826	         -6.36453914	
          3.90000000	        -40.67310675	          7.69504258	          1.54914529	         -3.03639886	         76.45062067	        -10.35439727	         41.10752272	         91.97288732	         -6.43517018	
          3.91000000	        -40.59175619	          7.68773057	          1.60770740	         -3.04317484	         76.34721678	        -10.32091010	         41.27827781	         91.87013341	         -6.50533815	
          3.92000000	        -40.50536576	          7.68088473	          1.67017419	         -3.04962956	         76.23805362	        -10.28564643	         41.46252492	         91.76289112	         -6.57509107	
          3.93000000	        -40.41398890	          7.67450576	          1.73654699	         -3.05574745	         76.12324826	        -10.24864265	         41.66056261	         91.65106732	         -6.64456545	
          3.94000000	        -40.31767148	          7.66863072	          1.80682725	         -3.06148775	         76.00291268	        -10.20994312	         41.87261855	         91.53453260	         -6.71398041	
          3.95000000	        -40.21644841	          7.66332969	          1.88101485	         -3.06678721	         75.87714335	        -10.16959869	         42.09884963	         91.41311403	         -6.78363283	
          3.96000000	        -40.11034163	          7.65869853	          1.95910603	         -3.07156566	         75.74601206	        -10.12766459	         42.33934305	         91.28658999	         -6.85389247	
